:SAMPLES-PER-SECOND 30
:FULLY-SPECIFIED
:DEGREES
84
root  11.4401 39.2345 4.94978 -13.3339 -71.2209 10.6762
RightUpLeg  10.4254 -13.8121 -15.6079
RightLeg  7.91379 -1.55451 0.0500961
RightFoot  -11.4887 -0.0667913 8.80463
RightToes  -2.21189e-009 0 -3.6325e-017
Spine  4.24982 -0.840913 5.25407
Spine1  7.55651 0.672133 -5.58909
HEad  -2.45659 -6.84029 -3.48633
LeftShoulder1  -0.578516 5.13834 -29.2302
LeftArm  -8.42126 19.1033 -42.2239
LeftForeArm  23.255 -15.7325 -4.58716
LeftHand  -0.0507627 2.75106 1.61111
RightShoulder  -0.485622 -5.11643 23.2676
RightArm  9.7835 0.248875 43.9546
RightForeArm  9.28344 13.4744 4.86296
RightHand  -0.331907 3.85243 -4.43288
LeftUpLeg  -9.07239 9.83809 4.40352
LeftLeg  8.7011 7.82104 -0.036018
LeftFoot  3.66454 0.329171 -2.63316
LeftToes  -4.03379e-008 1.61488e-010 -5.81581e-011
85
root  11.1583 39.0897 5.7692 -15.9622 -69.8755 13.3479
RightUpLeg  11.1141 -14.3711 -18.2493
RightLeg  9.15505 -1.43397 -0.492165
RightFoot  -12.0541 -0.016282 10.4363
RightToes  -2.21189e-009 0 -3.6325e-017
Spine  4.51334 -1.0326 2.99086
Spine1  7.50137 0.313577 -5.51433
HEad  -2.52463 -7.94662 -3.01687
LeftShoulder1  -0.51709 4.96105 -29.297
LeftArm  -7.17471 16.9904 -41.824
LeftForeArm  22.5722 -16.202 -4.71771
LeftHand  -0.0671003 2.53343 2.23914
RightShoulder  -0.482494 -5.11845 23.0248
RightArm  7.97477 -0.576995 43.2899
RightForeArm  8.97002 13.9552 4.36647
RightHand  -0.327354 3.4289 -4.54784
LeftUpLeg  -10.2224 9.9085 1.64079
LeftLeg  12.4358 6.65942 0.796723
LeftFoot  1.82279 0.0611589 -0.636754
LeftToes  -4.03379e-008 1.61488e-010 -5.81581e-011
86
root  10.9079 38.9404 6.59236 -19.0041 -68.598 16.1177
RightUpLeg  11.1439 -13.9502 -20.9868
RightLeg  12.2459 -2.03027 -1.02039
RightFoot  -12.4296 0.0407143 13.1288
RightToes  -2.21189e-009 0 -3.6325e-017
Spine  5.77854 -1.17504 1.74726
Spine1  6.73126 0.323617 -6.97682
HEad  -2.40111 -9.51505 -2.74774
LeftShoulder1  -0.396597 4.64743 -28.5081
LeftArm  -6.92546 14.5657 -42.1403
LeftForeArm  23.1207 -15.7003 -4.91626
LeftHand  -0.069151 2.62392 2.39297
RightShoulder  -0.457936 -5.05159 22.7072
RightArm  5.72531 -2.61866 43.3741
RightForeArm  9.08291 14.7049 3.76864
RightHand  -0.225952 3.70481 -3.14674
LeftUpLeg  -10.2779 9.56995 -0.946143
LeftLeg  14.961 6.24068 1.30063
LeftFoot  0.0327937 -0.0201862 0.207101
LeftToes  -4.03379e-008 1.61488e-010 -5.81581e-011
87
root  10.6755 38.8075 7.38962 -21.8811 -68.2581 18.7005
RightUpLeg  9.90963 -10.738 -22.8332
RightLeg  16.75 -3.86366 -1.61146
RightFoot  -12.0424 0.0168971 17.4042
RightToes  -2.21189e-009 0 -3.6325e-017
Spine  6.38286 -0.872106 0.611153
Spine1  7.16801 0.697358 -8.39466
HEad  -3.13199 -10.2267 -2.05811
LeftShoulder1  -0.34738 4.51303 -28.2396
LeftArm  -6.92182 11.5486 -42.453
LeftForeArm  23.3182 -14.9822 -5.14445
LeftHand  -0.0670183 1.9935 1.93702
RightShoulder  -0.440383 -4.98403 22.8408
RightArm  4.98471 -3.47941 43.2199
RightForeArm  8.15825 14.9157 3.6316
RightHand  -0.199739 3.9581 -2.74438
LeftUpLeg  -9.7912 9.67526 -2.76872
LeftLeg  16.8483 6.52168 1.27583
LeftFoot  -2.04644 -0.0712387 1.0204
LeftToes  -4.03379e-008 1.61488e-010 -5.81581e-011
88
root  10.4501 38.7337 8.14703 -24.7973 -68.609 21.4911
RightUpLeg  6.73609 -6.12485 -23.7604
RightLeg  23.5387 -6.2497 -3.184
RightFoot  -9.9539 -0.314742 20.1485
RightToes  -2.21189e-009 0 -3.6325e-017
Spine  7.03041 -0.436578 -1.07518
Spine1  7.29865 0.889333 -8.6649
HEad  -3.13987 -10.5893 -2.36021
LeftShoulder1  -0.386032 4.61659 -28.5054
LeftArm  -7.11655 9.04115 -42.7475
LeftForeArm  23.0397 -14.5628 -5.25495
LeftHand  -0.084478 1.91036 2.56344
RightShoulder  -0.405134 -4.87294 22.6197
RightArm  5.46415 -3.52871 43.6088
RightForeArm  8.69171 14.7798 3.72459
RightHand  -0.200675 3.50072 -2.83381
LeftUpLeg  -8.88589 9.62658 -4.07972
LeftLeg  17.6787 7.54029 0.919157
LeftFoot  -3.8187 -0.0704197 1.41761
LeftToes  -4.03379e-008 1.61488e-010 -5.81581e-011
89
root  10.1839 38.7979 8.89332 -24.9794 -68.9953 21.6632
RightUpLeg  2.29577 -2.88344 -23.5114
RightLeg  31.587 -7.59128 -5.25213
RightFoot  -4.00482 -0.908308 15.0488
RightToes  -2.21189e-009 0 -3.6325e-017
Spine  7.50175 -0.443261 -1.62855
Spine1  6.89174 0.747219 -8.56569
HEad  -3.31959 -10.7206 -2.531
LeftShoulder1  -0.308882 4.41061 -27.8896
LeftArm  -7.63846 7.99059 -43.6751
LeftForeArm  22.492 -15.0067 -5.01544
LeftHand  -0.0809434 2.59291 2.88004
RightShoulder  -0.480731 -5.10151 23.2389
RightArm  6.61889 -3.07106 43.9173
RightForeArm  9.30388 14.7775 3.95654
RightHand  -0.381588 4.64418 -4.71102
LeftUpLeg  -7.79054 8.79367 -4.66163
LeftLeg  17.4005 8.89715 0.814985
LeftFoot  -4.90144 -0.0740037 1.8395
LeftToes  -4.03379e-008 1.61488e-010 -5.81581e-011
90
root  9.87775 38.9 9.56915 -24.4665 -69.2514 20.9386
RightUpLeg  -2.04675 -0.400666 -22.76
RightLeg  38.75 -7.22979 -6.38684
RightFoot  2.69861 -0.952717 7.48874
RightToes  -2.21189e-009 0 -3.6325e-017
Spine  7.64588 -0.586347 -2.65635
Spine1  7.22422 0.260482 -7.28389
HEad  -3.97929 -10.1863 -2.52061
LeftShoulder1  -0.271923 4.31 -27.5375
LeftArm  -7.8093 6.57224 -44.3468
LeftForeArm  22.3 -15.1732 -4.92225
LeftHand  -0.0905072 1.78741 2.67602
RightShoulder  -0.429125 -4.94158 22.9382
RightArm  6.72119 -3.39239 45.429
RightForeArm  10.0601 15.643 3.92318
RightHand  -0.425947 4.62737 -5.20371
LeftUpLeg  -6.32085 8.10091 -4.89629
LeftLeg  16.6642 9.91511 0.580023
LeftFoot  -5.67919 -0.0820501 2.35025
LeftToes  -4.03379e-008 1.61488e-010 -5.81581e-011
91
root  9.59356 38.9212 10.1044 -22.7383 -68.923 19.123
RightUpLeg  -5.52566 1.10447 -21.5634
RightLeg  43.8587 -3.77867 -4.15114
RightFoot  1.58036 -0.990342 8.8221
RightToes  -2.21189e-009 0 -3.6325e-017
Spine  8.07774 -0.867654 -4.49656
Spine1  7.207 -0.724488 -5.26933
HEad  -4.62753 -9.8082 -2.30945
LeftShoulder1  -0.220945 4.1609 -27.4437
LeftArm  -6.94101 5.23854 -44.5988
LeftForeArm  21.0972 -15.5427 -5.02086
LeftHand  -0.0917651 2.61434 3.31446
RightShoulder  -0.426814 -4.92166 23.1911
RightArm  6.76189 -3.94531 46.4613
RightForeArm  11.1476 17.2397 3.80798
RightHand  -0.305862 3.34029 -4.33301
LeftUpLeg  -5.71819 7.8296 -4.96498
LeftLeg  16.9769 9.82003 0.51505
LeftFoot  -6.75874 -0.0662111 2.67542
LeftToes  -4.03379e-008 1.61488e-010 -5.81581e-011
92
root  9.24096 38.963 10.6094 -20.9109 -68.6676 16.9528
RightUpLeg  -8.62704 2.12903 -19.6873
RightLeg  47.7328 -0.819323 -1.32324
RightFoot  0.725612 -0.956437 9.08167
RightToes  -2.21189e-009 0 -3.6325e-017
Spine  8.75225 -1.22346 -5.95326
Spine1  7.04587 -1.6837 -3.60062
HEad  -5.31757 -9.58144 -1.9864
LeftShoulder1  -0.232202 4.19645 -27.2841
LeftArm  -5.94387 4.11533 -44.6072
LeftForeArm  21.3353 -15.9786 -5.06865
LeftHand  -0.103532 2.22034 3.45078
RightShoulder  -0.447976 -4.97755 23.505
RightArm  6.95798 -4.63529 47.7135
RightForeArm  10.0582 18.351 3.89981
RightHand  -0.355518 4.83973 -4.33282
LeftUpLeg  -4.63626 7.43909 -4.77069
LeftLeg  16.9994 9.7641 0.501995
LeftFoot  -7.72675 -0.0457118 2.90777
LeftToes  -4.03379e-008 1.61488e-010 -5.81581e-011
93
root  8.86121 39.0153 11.0957 -19.3687 -68.7281 15.3082
RightUpLeg  -11.7669 2.78649 -17.5032
RightLeg  50.0862 -0.557428 -1.07045
RightFoot  -0.725671 -0.877174 9.36489
RightToes  -2.21189e-009 0 -3.6325e-017
Spine  9.12033 -1.43461 -6.99234
Spine1  6.82247 -2.29492 -2.334
HEad  -5.56944 -9.58116 -1.60577
LeftShoulder1  -0.183923 4.05876 -26.8632
LeftArm  -5.43017 3.74845 -44.7704
LeftForeArm  21.2746 -16.9662 -4.81774
LeftHand  -0.098085 1.94019 3.0264
RightShoulder  -0.468152 -5.03092 23.7838
RightArm  6.6294 -5.68749 49.1096
RightForeArm  11.539 19.5172 3.85818
RightHand  -0.315035 4.07834 -4.06658
LeftUpLeg  -3.62569 6.97557 -4.70693
LeftLeg  16.7679 10.1125 0.728065
LeftFoot  -8.58581 -0.0165308 2.84508
LeftToes  -4.03379e-008 1.61488e-010 -5.81581e-011
94
root  8.45601 39.0914 11.5847 -17.9349 -69.0091 13.5787
RightUpLeg  -14.1514 2.89786 -15.0757
RightLeg  50.1495 -1.38768 -2.11886
RightFoot  -2.24595 -0.750983 9.22756
RightToes  -2.21189e-009 0 -3.6325e-017
Spine  9.44325 -1.62561 -8.01928
Spine1  6.88501 -2.93363 -0.596216
HEad  -5.75983 -9.481 -1.31401
LeftShoulder1  -0.287164 4.3611 -27.2503
LeftArm  -4.46182 3.11675 -44.3828
LeftForeArm  20.1178 -17.8208 -4.71551
LeftHand  -0.100098 2.41153 3.48957
RightShoulder  -0.412372 -4.8533 23.5947
RightArm  7.67295 -6.3817 50.6602
RightForeArm  12.5958 19.7667 3.89182
RightHand  -0.140459 2.502 -2.31452
LeftUpLeg  -2.10229 7.21615 -4.27234
LeftLeg  16.0519 10.024 0.425702
LeftFoot  -9.2794 -0.0017118 3.20177
LeftToes  -4.03379e-008 1.61488e-010 -5.81581e-011
95
root  8.02928 39.1469 12.0726 -16.4369 -69.1688 12.1011
RightUpLeg  -16.1884 2.23446 -12.672
RightLeg  47.9212 -2.33268 -3.08936
RightFoot  -3.20246 -0.633642 8.57843
RightToes  -2.21189e-009 0 -3.6325e-017
Spine  9.29214 -1.7774 -8.3451
Spine1  7.06476 -3.14386 0.0446271
HEad  -6.30355 -9.59104 -0.0287844
LeftShoulder1  -0.180385 4.05951 -26.2862
LeftArm  -4.99292 3.15549 -45.0969
LeftForeArm  20.3434 -18.5421 -4.42974
LeftHand  -0.113116 1.63928 3.27762
RightShoulder  -0.522137 -5.16481 24.6463
RightArm  9.72552 -6.63918 50.9902
RightForeArm  11.7993 19.8608 4.04572
RightHand  -0.214101 2.88968 -3.18336
LeftUpLeg  -0.960548 7.30683 -4.09964
LeftLeg  15.4563 10.0453 0.330469
LeftFoot  -9.97784 0.0185567 3.46468
LeftToes  -4.03379e-008 1.61488e-010 -5.81581e-011
96
root  7.58631 39.1979 12.5681 -15.2171 -69.3852 10.8875
RightUpLeg  -17.4334 1.23616 -10.1792
RightLeg  43.2085 -2.39306 -2.70581
RightFoot  -3.67801 -0.535851 7.62793
RightToes  -2.21189e-009 0 -3.6325e-017
Spine  9.32478 -1.95806 -8.69297
Spine1  7.0757 -3.46902 1.11621
HEad  -7.6385 -8.96371 1.10548
LeftShoulder1  -0.163215 4.00222 -26.5306
LeftArm  -5.35051 2.9589 -44.8971
LeftForeArm  20.2285 -18.8709 -4.31888
LeftHand  -0.116044 1.7728 3.49624
RightShoulder  -0.537983 -5.20711 24.7963
RightArm  11.7227 -6.79544 51.7492
RightForeArm  11.0628 19.172 4.24872
RightHand  -0.37641 4.59649 -4.67898
LeftUpLeg  0.325373 7.2436 -4.09987
LeftLeg  14.6949 10.3501 0.418982
LeftFoot  -10.6767 0.0440613 3.50462
LeftToes  -4.03379e-008 1.61488e-010 -5.81581e-011
97
root  7.08683 39.2266 13.0786 -14.4535 -69.8762 10.0144
RightUpLeg  -17.5677 0.0303959 -7.66958
RightLeg  36.0411 -1.51956 -1.45948
RightFoot  -4.28338 -0.533499 8.15847
RightToes  -2.21189e-009 0 -3.6325e-017
Spine  9.32255 -2.06671 -8.42796
Spine1  7.17209 -3.50212 1.38236
HEad  -7.12831 -10.101 0.674268
LeftShoulder1  -0.150901 3.96653 -26.4194
LeftArm  -5.04402 2.9145 -44.8794
LeftForeArm  19.8745 -18.9583 -4.34235
LeftHand  -0.113719 2.23019 3.80746
RightShoulder  -0.511469 -5.1233 24.7578
RightArm  13.6217 -7.0377 52.4686
RightForeArm  11.0859 18.0252 4.55448
RightHand  -0.390497 4.51257 -4.82064
LeftUpLeg  1.93292 7.48787 -3.97389
LeftLeg  13.8384 10.577 0.177271
LeftFoot  -11.4661 0.0728948 3.70767
LeftToes  -4.03379e-008 1.61488e-010 -5.81581e-011
98
root  6.55959 39.196 13.592 -14.4316 -70.1528 10.1341
RightUpLeg  -17.2865 -2.38438 -5.44323
RightLeg  27.5385 0.120438 -0.165266
RightFoot  -4.61931 -0.520229 8.31076
RightToes  -2.21189e-009 0 -3.6325e-017
Spine  9.30724 -2.24366 -8.20509
Spine1  7.01693 -3.51873 1.24892
HEad  -6.89531 -10.6525 0.61894
LeftShoulder1  -0.195817 4.10732 -26.2033
LeftArm  -5.12404 2.85758 -44.9643
LeftForeArm  20.0923 -18.4296 -4.45679
LeftHand  -0.101371 1.81098 3.05001
RightShoulder  -0.560434 -5.25824 25.1701
RightArm  14.7871 -7.20951 52.5205
RightForeArm  13.127 17.2237 4.80173
RightHand  -0.259553 3.46444 -3.64609
LeftUpLeg  3.18916 7.19939 -4.55802
LeftLeg  13.2659 11.1429 0.429653
LeftFoot  -12.3582 0.106682 3.66746
LeftToes  -4.03379e-008 1.61488e-010 -5.81581e-011
